<svg width="32" height="32" viewBox="0 0 32 32" fill="none" xmlns="http://www.w3.org/2000/svg">
<g clip-path="url(#clip0_28_218)">
<rect width="32" height="32" fill="white"/>
<path d="M46.0437 23.7515V22.6678H46.0368C46.0047 20.3312 45.8535 18.5471 45.4297 17.0526C44.9261 15.2765 44.0562 13.9685 42.7092 12.6215C41.8392 11.7515 40.261 10.7646 39.0413 10.316C37.8266 9.8659 36.4823 9.65119 35.0239 9.65119C33.7695 9.65119 32.5605 9.80064 31.4002 10.1033L31.3979 10.1039C30.2654 10.402 29.2225 10.8082 28.2751 11.3277C26.5003 12.301 23.8815 14.6712 21.6013 16.8488C20.6296 17.7768 19.6931 18.696 18.8781 19.496C18.7192 19.6519 18.5649 19.8033 18.4159 19.9494C17.4839 20.863 16.7914 21.5332 16.426 21.8387C16.334 21.9156 16.2546 21.9665 16.1922 21.999C16.1529 21.8704 16.1136 21.6518 16.1136 21.3102V14.4715H18.9918H20.0755V13.3878V9.89501V8.8113H18.9918H16.1136V5.19995V4.11624H15.0299H10.9151H9.83143V5.19995V8.8113H7.35999H6.27627V9.89501V13.3878V14.4715H7.35999H9.83143V22.5303C9.83143 24.134 10.2075 25.3891 10.8946 26.3269C11.5838 27.2677 12.5103 27.7858 13.4202 28.05C15.1767 28.5601 17.0073 28.1691 17.609 27.9814C18.6186 27.6663 19.6223 27.0174 20.5854 26.2535C21.5597 25.4807 22.5679 24.528 23.5809 23.5338C23.9664 23.1554 24.3526 22.7713 24.7397 22.3864C26.422 20.7132 28.1202 19.0243 29.8458 17.7242C30.4282 17.2854 31.1207 16.9114 31.934 16.6096C32.7643 16.3014 33.2059 16.1769 34.0786 16.1769C34.9001 16.1769 35.923 16.3049 36.4281 16.496L36.4363 16.4991L36.4445 16.502C37.0114 16.7061 37.4649 16.9868 37.8259 17.334C38.5852 18.0641 39.0215 19.1646 39.2519 20.4065C39.48 21.6366 39.4823 22.8652 39.4823 23.7515V24.8352V44.5901V45.6739H40.566H44.96H46.0437V44.5901V24.8352V23.7515Z" fill="#F8F8F8" stroke="black" stroke-width="2.16743"/>
</g>
<defs>
<clipPath id="clip0_28_218">
<rect width="32" height="32" rx="8" fill="white"/>
</clipPath>
</defs>
</svg>
