<svg width="971" height="221" viewBox="0 0 971 221" fill="none" xmlns="http://www.w3.org/2000/svg">
<path d="M889.05 91.3832H919.109V108.646C925.743 103.704 932.75 99.4393 940.129 95.8513C947.508 92.2632 954.854 89.5214 962.165 87.6259L971 115.146C959.423 116.296 949.235 118.903 940.434 122.965C931.701 126.959 924.592 132.612 919.109 139.923V211.211H889.05V91.3832Z" fill="black"/>
<path d="M746.441 42.7634H776.499V142.281L832.554 91.4052H878.556L815.9 147.46L882.516 211.233H837.429L792.849 168.074L776.499 182.697V211.233H746.441V42.7634Z" fill="black"/>
<path d="M682.699 193.189C682.699 190.481 683.241 187.942 684.324 185.573C685.475 183.136 687.1 181.037 689.198 179.277C691.297 177.449 693.836 176.027 696.814 175.012C699.793 173.996 703.144 173.488 706.868 173.488C710.591 173.488 713.942 173.996 716.921 175.012C719.9 176.027 722.405 177.449 724.436 179.277C726.534 181.037 728.125 183.136 729.208 185.573C730.359 187.942 730.935 190.481 730.935 193.189C730.935 195.897 730.359 198.469 729.208 200.907C728.125 203.276 726.534 205.341 724.436 207.101C722.405 208.861 719.9 210.249 716.921 211.265C713.942 212.348 710.591 212.889 706.868 212.889C703.144 212.889 699.793 212.348 696.814 211.265C693.836 210.249 691.297 208.861 689.198 207.101C687.1 205.341 685.475 203.276 684.324 200.907C683.241 198.469 682.699 195.897 682.699 193.189Z" fill="black"/>
<mask id="path-4-outside-1_8_2" maskUnits="userSpaceOnUse" x="0" y="0" width="668" height="221" fill="black">
<rect fill="white" width="668" height="221"/>
<path fill-rule="evenodd" clip-rule="evenodd" d="M494.222 90.7936C504.321 77.6079 521.204 67.3086 531.05 64.0008C540.973 60.6162 551.704 58.9238 563.243 58.9238C568.166 58.9238 573.012 59.2315 577.782 59.8469C582.628 60.4623 587.243 61.3085 591.628 62.3854C596.09 63.4624 600.244 64.7701 604.09 66.3086C608.013 67.7701 611.475 69.3855 614.475 71.1548V19H648.629V197.503H614.475V184.695C611.475 186.772 607.936 188.734 603.859 190.58C599.782 192.426 595.397 194.042 590.705 195.426C586.013 196.811 581.128 197.888 576.051 198.657C571.051 199.503 566.089 199.926 561.166 199.926C549.627 199.926 539.012 198.234 529.319 194.849C519.704 191.465 511.434 186.695 504.511 180.541C497.588 174.387 492.165 167.041 488.242 158.503C484.395 149.887 480.773 133.599 483.242 118.868C454.086 96.9694 430.531 92.3233 419.676 89.9002C411.06 87.9771 402.175 87.0155 393.021 87.0155C386.636 87.0155 381.213 87.5155 376.752 88.5156C372.367 89.4387 368.79 90.7079 366.021 92.3233C363.251 93.8618 361.213 95.6696 359.905 97.7465C358.674 99.7466 358.059 101.862 358.059 104.093C358.059 105.708 358.367 107.17 358.982 108.477C359.674 109.785 360.751 110.939 362.213 111.939C363.751 112.862 365.713 113.593 368.098 114.131C370.559 114.593 373.559 114.824 377.098 114.824C380.329 114.824 383.752 114.631 387.367 114.247C390.983 113.862 394.752 113.478 398.675 113.093C402.598 112.631 406.637 112.208 410.791 111.824C415.022 111.439 419.329 111.247 423.714 111.247C431.868 111.247 438.984 112.208 445.061 114.131C451.215 116.055 456.292 118.747 460.292 122.208C464.292 125.67 467.292 129.747 469.292 134.439C471.292 139.132 472.292 144.247 472.292 149.786C472.292 156.94 470.854 163.715 467.33 169.748C445.753 206.694 354.402 214.015 302.574 181.623C275.567 164.743 275.567 139.424 270.428 121.061C268.872 115.503 265.312 111.061 261.312 107.215C257.312 103.369 252.427 100.407 246.658 98.33C240.966 96.1761 234.504 95.0992 227.273 95.0992C218.581 95.0992 210.504 96.4838 203.042 99.2531C195.58 102.022 189.042 105.522 183.426 109.753V195.426H149.272V138.783C145.871 142.747 128.603 184.999 101.392 193.49C93.0193 196.103 48.5093 204.479 48.5093 156.831V87.543H19V58.5513H48.5093V19.5802H82.6638V58.5513H115.549V87.543H82.6638V146.703C82.6638 163.663 92.0404 164.663 100.021 157.992C113.525 146.703 122.323 124.18 149.272 91.3178V19H183.426V71.7317C190.58 67.8086 198.542 64.6932 207.311 62.3854C216.157 60.0777 225.427 58.9238 235.119 58.9238C246.35 58.9238 256.427 60.5777 265.351 63.8854C274.351 67.1932 281.966 71.9625 288.197 78.1934C294.428 84.3474 298.751 92.0275 302.505 100.694C312.702 124.233 304.262 144.017 327.02 158.503C347.475 171.523 408.598 174.871 428.61 163.913C436.02 159.854 438.737 151.929 433.674 146.865C431.005 144.196 424.753 142.17 418.291 142.17C415.291 142.17 412.06 142.363 408.598 142.747C405.137 143.132 401.483 143.555 397.637 144.017C393.867 144.401 389.906 144.786 385.752 145.17C381.675 145.555 377.521 145.747 373.29 145.747C364.059 145.747 356.174 144.747 349.636 142.747C343.174 140.747 337.905 138.016 333.828 134.555C329.751 131.093 326.789 127.016 324.943 122.324C323.097 117.555 322.174 112.439 322.174 106.977C322.174 100.054 323.789 93.6695 327.02 87.8232C330.251 81.977 334.866 76.9384 340.866 72.7076C346.866 68.3998 354.097 65.0536 362.559 62.6689C371.098 60.2843 380.598 59.092 391.06 59.092C396.521 59.092 402.214 59.4381 408.137 60.1304C414.137 60.7458 420.022 61.592 425.791 62.6689C431.56 63.7459 437.099 65.0151 442.407 66.4767C447.715 67.8613 471.354 74.9915 494.222 90.7936ZM521.588 145.464C519.435 140.618 518.358 135.464 518.358 130.002C518.358 124.156 519.473 118.733 521.704 113.733C523.935 108.732 527.127 104.386 531.281 100.694C535.512 97.0014 540.666 94.1168 546.743 92.0398C552.897 89.8859 559.897 88.809 567.743 88.809C571.589 88.809 575.551 89.1167 579.628 89.7321C583.705 90.2705 587.744 91.1552 591.744 92.386C595.744 93.6168 599.667 95.1937 603.513 97.1168C607.359 99.0399 611.013 101.386 614.475 104.155V151.349C611.705 154.195 608.436 156.772 604.667 159.08C600.975 161.387 596.974 163.349 592.667 164.964C588.436 166.58 584.013 167.849 579.397 168.772C574.782 169.618 570.166 170.041 565.551 170.041C558.32 170.041 551.781 169.003 545.935 166.926C540.166 164.772 535.204 161.887 531.05 158.272C526.973 154.579 523.819 150.31 521.588 145.464Z"/>
</mask>
<path fill-rule="evenodd" clip-rule="evenodd" d="M494.222 90.7936C504.321 77.6079 521.204 67.3086 531.05 64.0008C540.973 60.6162 551.704 58.9238 563.243 58.9238C568.166 58.9238 573.012 59.2315 577.782 59.8469C582.628 60.4623 587.243 61.3085 591.628 62.3854C596.09 63.4624 600.244 64.7701 604.09 66.3086C608.013 67.7701 611.475 69.3855 614.475 71.1548V19H648.629V197.503H614.475V184.695C611.475 186.772 607.936 188.734 603.859 190.58C599.782 192.426 595.397 194.042 590.705 195.426C586.013 196.811 581.128 197.888 576.051 198.657C571.051 199.503 566.089 199.926 561.166 199.926C549.627 199.926 539.012 198.234 529.319 194.849C519.704 191.465 511.434 186.695 504.511 180.541C497.588 174.387 492.165 167.041 488.242 158.503C484.395 149.887 480.773 133.599 483.242 118.868C454.086 96.9694 430.531 92.3233 419.676 89.9002C411.06 87.9771 402.175 87.0155 393.021 87.0155C386.636 87.0155 381.213 87.5155 376.752 88.5156C372.367 89.4387 368.79 90.7079 366.021 92.3233C363.251 93.8618 361.213 95.6696 359.905 97.7465C358.674 99.7466 358.059 101.862 358.059 104.093C358.059 105.708 358.367 107.17 358.982 108.477C359.674 109.785 360.751 110.939 362.213 111.939C363.751 112.862 365.713 113.593 368.098 114.131C370.559 114.593 373.559 114.824 377.098 114.824C380.329 114.824 383.752 114.631 387.367 114.247C390.983 113.862 394.752 113.478 398.675 113.093C402.598 112.631 406.637 112.208 410.791 111.824C415.022 111.439 419.329 111.247 423.714 111.247C431.868 111.247 438.984 112.208 445.061 114.131C451.215 116.055 456.292 118.747 460.292 122.208C464.292 125.67 467.292 129.747 469.292 134.439C471.292 139.132 472.292 144.247 472.292 149.786C472.292 156.94 470.854 163.715 467.33 169.748C445.753 206.694 354.402 214.015 302.574 181.623C275.567 164.743 275.567 139.424 270.428 121.061C268.872 115.503 265.312 111.061 261.312 107.215C257.312 103.369 252.427 100.407 246.658 98.33C240.966 96.1761 234.504 95.0992 227.273 95.0992C218.581 95.0992 210.504 96.4838 203.042 99.2531C195.58 102.022 189.042 105.522 183.426 109.753V195.426H149.272V138.783C145.871 142.747 128.603 184.999 101.392 193.49C93.0193 196.103 48.5093 204.479 48.5093 156.831V87.543H19V58.5513H48.5093V19.5802H82.6638V58.5513H115.549V87.543H82.6638V146.703C82.6638 163.663 92.0404 164.663 100.021 157.992C113.525 146.703 122.323 124.18 149.272 91.3178V19H183.426V71.7317C190.58 67.8086 198.542 64.6932 207.311 62.3854C216.157 60.0777 225.427 58.9238 235.119 58.9238C246.35 58.9238 256.427 60.5777 265.351 63.8854C274.351 67.1932 281.966 71.9625 288.197 78.1934C294.428 84.3474 298.751 92.0275 302.505 100.694C312.702 124.233 304.262 144.017 327.02 158.503C347.475 171.523 408.598 174.871 428.61 163.913C436.02 159.854 438.737 151.929 433.674 146.865C431.005 144.196 424.753 142.17 418.291 142.17C415.291 142.17 412.06 142.363 408.598 142.747C405.137 143.132 401.483 143.555 397.637 144.017C393.867 144.401 389.906 144.786 385.752 145.17C381.675 145.555 377.521 145.747 373.29 145.747C364.059 145.747 356.174 144.747 349.636 142.747C343.174 140.747 337.905 138.016 333.828 134.555C329.751 131.093 326.789 127.016 324.943 122.324C323.097 117.555 322.174 112.439 322.174 106.977C322.174 100.054 323.789 93.6695 327.02 87.8232C330.251 81.977 334.866 76.9384 340.866 72.7076C346.866 68.3998 354.097 65.0536 362.559 62.6689C371.098 60.2843 380.598 59.092 391.06 59.092C396.521 59.092 402.214 59.4381 408.137 60.1304C414.137 60.7458 420.022 61.592 425.791 62.6689C431.56 63.7459 437.099 65.0151 442.407 66.4767C447.715 67.8613 471.354 74.9915 494.222 90.7936ZM521.588 145.464C519.435 140.618 518.358 135.464 518.358 130.002C518.358 124.156 519.473 118.733 521.704 113.733C523.935 108.732 527.127 104.386 531.281 100.694C535.512 97.0014 540.666 94.1168 546.743 92.0398C552.897 89.8859 559.897 88.809 567.743 88.809C571.589 88.809 575.551 89.1167 579.628 89.7321C583.705 90.2705 587.744 91.1552 591.744 92.386C595.744 93.6168 599.667 95.1937 603.513 97.1168C607.359 99.0399 611.013 101.386 614.475 104.155V151.349C611.705 154.195 608.436 156.772 604.667 159.08C600.975 161.387 596.974 163.349 592.667 164.964C588.436 166.58 584.013 167.849 579.397 168.772C574.782 169.618 570.166 170.041 565.551 170.041C558.32 170.041 551.781 169.003 545.935 166.926C540.166 164.772 535.204 161.887 531.05 158.272C526.973 154.579 523.819 150.31 521.588 145.464Z" fill="#F8F8F8"/>
<path fill-rule="evenodd" clip-rule="evenodd" d="M494.222 90.7936C504.321 77.6079 521.204 67.3086 531.05 64.0008C540.973 60.6162 551.704 58.9238 563.243 58.9238C568.166 58.9238 573.012 59.2315 577.782 59.8469C582.628 60.4623 587.243 61.3085 591.628 62.3854C596.09 63.4624 600.244 64.7701 604.09 66.3086C608.013 67.7701 611.475 69.3855 614.475 71.1548V19H648.629V197.503H614.475V184.695C611.475 186.772 607.936 188.734 603.859 190.58C599.782 192.426 595.397 194.042 590.705 195.426C586.013 196.811 581.128 197.888 576.051 198.657C571.051 199.503 566.089 199.926 561.166 199.926C549.627 199.926 539.012 198.234 529.319 194.849C519.704 191.465 511.434 186.695 504.511 180.541C497.588 174.387 492.165 167.041 488.242 158.503C484.395 149.887 480.773 133.599 483.242 118.868C454.086 96.9694 430.531 92.3233 419.676 89.9002C411.06 87.9771 402.175 87.0155 393.021 87.0155C386.636 87.0155 381.213 87.5155 376.752 88.5156C372.367 89.4387 368.79 90.7079 366.021 92.3233C363.251 93.8618 361.213 95.6696 359.905 97.7465C358.674 99.7466 358.059 101.862 358.059 104.093C358.059 105.708 358.367 107.17 358.982 108.477C359.674 109.785 360.751 110.939 362.213 111.939C363.751 112.862 365.713 113.593 368.098 114.131C370.559 114.593 373.559 114.824 377.098 114.824C380.329 114.824 383.752 114.631 387.367 114.247C390.983 113.862 394.752 113.478 398.675 113.093C402.598 112.631 406.637 112.208 410.791 111.824C415.022 111.439 419.329 111.247 423.714 111.247C431.868 111.247 438.984 112.208 445.061 114.131C451.215 116.055 456.292 118.747 460.292 122.208C464.292 125.67 467.292 129.747 469.292 134.439C471.292 139.132 472.292 144.247 472.292 149.786C472.292 156.94 470.854 163.715 467.33 169.748C445.753 206.694 354.402 214.015 302.574 181.623C275.567 164.743 275.567 139.424 270.428 121.061C268.872 115.503 265.312 111.061 261.312 107.215C257.312 103.369 252.427 100.407 246.658 98.33C240.966 96.1761 234.504 95.0992 227.273 95.0992C218.581 95.0992 210.504 96.4838 203.042 99.2531C195.58 102.022 189.042 105.522 183.426 109.753V195.426H149.272V138.783C145.871 142.747 128.603 184.999 101.392 193.49C93.0193 196.103 48.5093 204.479 48.5093 156.831V87.543H19V58.5513H48.5093V19.5802H82.6638V58.5513H115.549V87.543H82.6638V146.703C82.6638 163.663 92.0404 164.663 100.021 157.992C113.525 146.703 122.323 124.18 149.272 91.3178V19H183.426V71.7317C190.58 67.8086 198.542 64.6932 207.311 62.3854C216.157 60.0777 225.427 58.9238 235.119 58.9238C246.35 58.9238 256.427 60.5777 265.351 63.8854C274.351 67.1932 281.966 71.9625 288.197 78.1934C294.428 84.3474 298.751 92.0275 302.505 100.694C312.702 124.233 304.262 144.017 327.02 158.503C347.475 171.523 408.598 174.871 428.61 163.913C436.02 159.854 438.737 151.929 433.674 146.865C431.005 144.196 424.753 142.17 418.291 142.17C415.291 142.17 412.06 142.363 408.598 142.747C405.137 143.132 401.483 143.555 397.637 144.017C393.867 144.401 389.906 144.786 385.752 145.17C381.675 145.555 377.521 145.747 373.29 145.747C364.059 145.747 356.174 144.747 349.636 142.747C343.174 140.747 337.905 138.016 333.828 134.555C329.751 131.093 326.789 127.016 324.943 122.324C323.097 117.555 322.174 112.439 322.174 106.977C322.174 100.054 323.789 93.6695 327.02 87.8232C330.251 81.977 334.866 76.9384 340.866 72.7076C346.866 68.3998 354.097 65.0536 362.559 62.6689C371.098 60.2843 380.598 59.092 391.06 59.092C396.521 59.092 402.214 59.4381 408.137 60.1304C414.137 60.7458 420.022 61.592 425.791 62.6689C431.56 63.7459 437.099 65.0151 442.407 66.4767C447.715 67.8613 471.354 74.9915 494.222 90.7936ZM521.588 145.464C519.435 140.618 518.358 135.464 518.358 130.002C518.358 124.156 519.473 118.733 521.704 113.733C523.935 108.732 527.127 104.386 531.281 100.694C535.512 97.0014 540.666 94.1168 546.743 92.0398C552.897 89.8859 559.897 88.809 567.743 88.809C571.589 88.809 575.551 89.1167 579.628 89.7321C583.705 90.2705 587.744 91.1552 591.744 92.386C595.744 93.6168 599.667 95.1937 603.513 97.1168C607.359 99.0399 611.013 101.386 614.475 104.155V151.349C611.705 154.195 608.436 156.772 604.667 159.08C600.975 161.387 596.974 163.349 592.667 164.964C588.436 166.58 584.013 167.849 579.397 168.772C574.782 169.618 570.166 170.041 565.551 170.041C558.32 170.041 551.781 169.003 545.935 166.926C540.166 164.772 535.204 161.887 531.05 158.272C526.973 154.579 523.819 150.31 521.588 145.464Z" stroke="black" stroke-width="37.1323" mask="url(#path-4-outside-1_8_2)"/>
</svg>
